<svg width="39" height="36" viewBox="0 0 39 36" fill="none" xmlns="http://www.w3.org/2000/svg">
<path d="M8.4646 19.5001H26.6159L18.6858 26.8201C18.0521 27.4051 18.0521 28.3651 18.6858 28.9501C19.3196 29.5351 20.3433 29.5351 20.9771 28.9501L31.6859 19.0651C32.3196 18.4801 32.3196 17.5351 31.6859 16.9501L20.9934 7.05006C20.6897 6.76918 20.2776 6.61133 19.8477 6.61133C19.4179 6.61133 19.0057 6.76918 18.7021 7.05006C18.0683 7.63506 18.0683 8.58006 18.7021 9.16506L26.6159 16.5001H8.4646C7.57085 16.5001 6.8396 17.1751 6.8396 18.0001C6.8396 18.8251 7.57085 19.5001 8.4646 19.5001Z" fill="currentColor"/>
</svg>
