<svg width="101" height="21" viewBox="0 0 101 21" fill="none" xmlns="http://www.w3.org/2000/svg">
<g clip-path="url(#clip0_1_1504)">
<path d="M10.1579 15.2098L13.6407 17.3163C14.2785 17.7023 15.059 17.1317 14.8912 16.4099L13.968 12.4487L17.048 9.77994C17.6103 9.29318 17.3082 8.37002 16.5696 8.31128L12.5161 7.96719L10.93 4.22419C10.6446 3.54441 9.67112 3.54441 9.38578 4.22419L7.79962 7.9588L3.74611 8.30288C3.00758 8.36163 2.70545 9.28479 3.26774 9.77155L6.34774 12.4403L5.42458 16.4015C5.25673 17.1233 6.03722 17.6939 6.67504 17.3079L10.1579 15.2098Z" fill="#FDC500"/>
<path d="M70.5832 15.2098L74.066 17.3163C74.7038 17.7023 75.4843 17.1317 75.3165 16.4099L74.3933 12.4487L77.4733 9.77994C78.0356 9.29318 77.7335 8.37002 76.9949 8.31128L72.9414 7.96719L71.3553 4.22419C71.0699 3.54441 70.0964 3.54441 69.8111 4.22419L68.2249 7.9588L64.1714 8.30288C63.4329 8.36163 63.1307 9.28479 63.693 9.77155L66.773 12.4403L65.8499 16.4015C65.682 17.1233 66.4625 17.6939 67.1003 17.3079L70.5832 15.2098Z" fill="#FDC500"/>
<path d="M50.4411 15.2098L53.9239 17.3163C54.5617 17.7023 55.3422 17.1317 55.1744 16.4099L54.2512 12.4487L57.3312 9.77994C57.8935 9.29318 57.5914 8.37002 56.8529 8.31128L52.7993 7.96719L51.2132 4.22419C50.9278 3.54441 49.9543 3.54441 49.669 4.22419L48.0828 7.9588L44.0293 8.30288C43.2908 8.36163 42.9887 9.28479 43.5509 9.77155L46.6309 12.4403L45.7078 16.4015C45.5399 17.1233 46.3204 17.6939 46.9582 17.3079L50.4411 15.2098Z" fill="#FDC500"/>
<path d="M30.2995 15.2098L33.7823 17.3163C34.4201 17.7023 35.2006 17.1317 35.0328 16.4099L34.1096 12.4487L37.1896 9.77994C37.7519 9.29318 37.4498 8.37002 36.7113 8.31128L32.6577 7.96719L31.0716 4.22419C30.7862 3.54441 29.8127 3.54441 29.5274 4.22419L27.9412 7.9588L23.8877 8.30288C23.1492 8.36163 22.8471 9.28479 23.4093 9.77155L26.4893 12.4403L25.5662 16.4015C25.3983 17.1233 26.1788 17.6939 26.8166 17.3079L30.2995 15.2098Z" fill="#FDC500"/>
<path d="M90.7248 15.2098L94.2076 17.3163C94.8454 17.7023 95.6259 17.1317 95.4581 16.4099L94.5349 12.4487L97.6149 9.77994C98.1772 9.29318 97.8751 8.37002 97.1365 8.31128L93.083 7.96719L91.4969 4.22419C91.2115 3.54441 90.238 3.54441 89.9527 4.22419L88.3665 7.9588L84.313 8.30288C83.5745 8.36163 83.2723 9.28479 83.8346 9.77155L86.9146 12.4403L85.9915 16.4015C85.8236 17.1233 86.6041 17.6939 87.2419 17.3079L90.7248 15.2098Z" fill="#FDC500"/>
</g>
<defs>
<clipPath id="clip0_1_1504">
<rect width="100.708" height="20.1417" fill="white" transform="translate(0.0874023 0.506836)"/>
</clipPath>
</defs>
</svg>
